HIERARCHY
ROOT Hip
{
	OFFSET	0.0000	0.0000	0.0000
	CHANNELS 6 Xposition Yposition Zposition Xrotation Yrotation Zrotation
	JOINT LowerSpine
	{
		OFFSET	0.0000	9.2812	-5.5247
		CHANNELS 3 Xrotation Yrotation Zrotation
		JOINT MiddleSpine
		{
			OFFSET	0.0000	8.4698	0.3983
			CHANNELS 3 Xrotation Yrotation Zrotation
			JOINT Chest
			{
				OFFSET	0.0000	10.4803	-2.0995
				CHANNELS 3 Xrotation Yrotation Zrotation
				JOINT Neck
				{
					OFFSET	0.0000	23.6171	-0.4420
					CHANNELS 3 Xrotation Yrotation Zrotation
					JOINT Head
					{
						OFFSET	-0.0001	13.3369	3.6276
						CHANNELS 3 Xrotation Yrotation Zrotation
						End Site
						{
							OFFSET	0.0001	18.6349	0.5563
						}
					}
				}
				JOINT LClavicle
				{
					OFFSET	2.1459	22.7917	7.0277
					CHANNELS 3 Xrotation Yrotation Zrotation
					JOINT LShoulder
					{
						OFFSET	12.5367	3.2691	-5.2898
						CHANNELS 3 Xrotation Yrotation Zrotation
						JOINT LForearm
						{
							OFFSET	29.5893	-0.1049	-0.2564
							CHANNELS 3 Xrotation Yrotation Zrotation
							JOINT LHand
							{
								OFFSET	24.6837	0.0716	-0.1479
								CHANNELS 3 Xrotation Yrotation Zrotation
								JOINT LFinger1
								{
									OFFSET	9.5667	0.8367	2.6571
									CHANNELS 3 Xrotation Yrotation Zrotation
									JOINT LFinger11
									{
										OFFSET	3.5784	-0.8726	0.6305
										CHANNELS 3 Xrotation Yrotation Zrotation
										JOINT LFinger12
										{
											OFFSET	2.4429	-0.5958	0.4306
											CHANNELS 3 Xrotation Yrotation Zrotation
											End Site
											{
												OFFSET	1.7384	-0.5189	0.2820
											}
										}
									}
								}
								JOINT LFinger2
								{
									OFFSET	9.7095	0.9662	0.2313
									CHANNELS 3 Xrotation Yrotation Zrotation
									JOINT LFinger21
									{
										OFFSET	4.4245	0.0123	-0.0261
										CHANNELS 3 Xrotation Yrotation Zrotation
										JOINT LFinger22
										{
											OFFSET	2.4525	0.0075	-0.0149
											CHANNELS 3 Xrotation Yrotation Zrotation
											End Site
											{
												OFFSET	2.2028	-0.1556	0.0030
											}
										}
									}
								}
								JOINT LFinger3
								{
									OFFSET	9.2018	0.6448	-2.1770
									CHANNELS 3 Xrotation Yrotation Zrotation
									JOINT LFinger31
									{
										OFFSET	4.0148	-0.2033	-0.2514
										CHANNELS 3 Xrotation Yrotation Zrotation
										JOINT LFinger32
										{
											OFFSET	2.2878	-0.1151	-0.1437
											CHANNELS 3 Xrotation Yrotation Zrotation
											End Site
											{
												OFFSET	2.0228	-0.2487	-0.0956
											}
										}
									}
								}
								JOINT LFinger4
								{
									OFFSET	8.5389	-0.6489	-3.7596
									CHANNELS 3 Xrotation Yrotation Zrotation
									JOINT LFinger41
									{
										OFFSET	2.4695	-0.5150	-0.6817
										CHANNELS 3 Xrotation Yrotation Zrotation
										JOINT LFinger42
										{
											OFFSET	1.8109	-0.3771	-0.5002
											CHANNELS 3 Xrotation Yrotation Zrotation
											End Site
											{
												OFFSET	1.6073	-0.4416	-0.3688
											}
										}
									}
								}
								JOINT LFinger0
								{
									OFFSET	1.9790	-1.4979	1.5003
									CHANNELS 3 Xrotation Yrotation Zrotation
									JOINT LFinger01
									{
										OFFSET	3.6846	-1.2100	2.7780
										CHANNELS 3 Xrotation Yrotation Zrotation
										JOINT LFinger02
										{
											OFFSET	2.4262	-0.8682	1.7480
											CHANNELS 3 Xrotation Yrotation Zrotation
											End Site
											{
												OFFSET	1.7842	-0.6142	1.2217
											}
										}
									}
								}
							}
						}
					}
				}
				JOINT RClavicle
				{
					OFFSET	-2.1459	22.7917	7.0277
					CHANNELS 3 Xrotation Yrotation Zrotation
					JOINT RShoulder
					{
						OFFSET	-12.5389	3.2697	-5.2907
						CHANNELS 3 Xrotation Yrotation Zrotation
						JOINT RForearm
						{
							OFFSET	-29.5893	-0.1049	-0.2564
							CHANNELS 3 Xrotation Yrotation Zrotation
							JOINT RHand
							{
								OFFSET	-24.6837	0.0716	-0.1479
								CHANNELS 3 Xrotation Yrotation Zrotation
								JOINT RFinger1
								{
									OFFSET	-9.5668	0.8368	2.6571
									CHANNELS 3 Xrotation Yrotation Zrotation
									JOINT RFinger11
									{
										OFFSET	-3.5784	-0.8726	0.6305
										CHANNELS 3 Xrotation Yrotation Zrotation
										JOINT RFinger12
										{
											OFFSET	-2.4429	-0.5960	0.4306
											CHANNELS 3 Xrotation Yrotation Zrotation
											End Site
											{
												OFFSET	-1.7384	-0.5189	0.2820
											}
										}
									}
								}
								JOINT RFinger2
								{
									OFFSET	-9.7095	0.9662	0.2314
									CHANNELS 3 Xrotation Yrotation Zrotation
									JOINT RFinger21
									{
										OFFSET	-4.4245	0.0124	-0.0261
										CHANNELS 3 Xrotation Yrotation Zrotation
										JOINT RFinger22
										{
											OFFSET	-2.4525	0.0075	-0.0150
											CHANNELS 3 Xrotation Yrotation Zrotation
											End Site
											{
												OFFSET	-2.2028	-0.1556	0.0030
											}
										}
									}
								}
								JOINT RFinger3
								{
									OFFSET	-9.2018	0.6449	-2.1770
									CHANNELS 3 Xrotation Yrotation Zrotation
									JOINT RFinger31
									{
										OFFSET	-4.0148	-0.2033	-0.2514
										CHANNELS 3 Xrotation Yrotation Zrotation
										JOINT RFinger32
										{
											OFFSET	-2.2879	-0.1151	-0.1437
											CHANNELS 3 Xrotation Yrotation Zrotation
											End Site
											{
												OFFSET	-2.0228	-0.2487	-0.0956
											}
										}
									}
								}
								JOINT RFinger4
								{
									OFFSET	-8.5389	-0.6489	-3.7596
									CHANNELS 3 Xrotation Yrotation Zrotation
									JOINT RFinger41
									{
										OFFSET	-2.4695	-0.5150	-0.6817
										CHANNELS 3 Xrotation Yrotation Zrotation
										JOINT RFinger42
										{
											OFFSET	-1.8109	-0.3770	-0.5002
											CHANNELS 3 Xrotation Yrotation Zrotation
											End Site
											{
												OFFSET	-1.6073	-0.4416	-0.3688
											}
										}
									}
								}
								JOINT RFinger0
								{
									OFFSET	-1.9790	-1.4978	1.5002
									CHANNELS 3 Xrotation Yrotation Zrotation
									JOINT RFinger01
									{
										OFFSET	-3.6846	-1.2102	2.7781
										CHANNELS 3 Xrotation Yrotation Zrotation
										JOINT RFinger02
										{
											OFFSET	-2.4262	-0.8681	1.7480
											CHANNELS 3 Xrotation Yrotation Zrotation
											End Site
											{
												OFFSET	-1.7842	-0.6142	1.2217
											}
										}
									}
								}
							}
						}
					}
				}
			}
		}
	}
	JOINT RThigh
	{
		OFFSET	-10.9736	4.1953	-0.9002
		CHANNELS 3 Xrotation Yrotation Zrotation
		JOINT RShin
		{
			OFFSET	-0.7945	-43.1846	0.0000
			CHANNELS 3 Xrotation Yrotation Zrotation
			JOINT RFoot
			{
				OFFSET	0.0000	-42.4047	0.0000
				CHANNELS 3 Xrotation Yrotation Zrotation
				JOINT RToe
				{
					OFFSET	0.0000	-4.6606	9.7460
					CHANNELS 3 Xrotation Yrotation Zrotation
					End Site
					{
						OFFSET	0.0000	0.0000	6.5382
					}
				}
			}
		}
	}
	JOINT LThigh
	{
		OFFSET	10.9735	4.1956	-0.9002
		CHANNELS 3 Xrotation Yrotation Zrotation
		JOINT LShin
		{
			OFFSET	0.7945	-43.1849	0.0000
			CHANNELS 3 Xrotation Yrotation Zrotation
			JOINT LFoot
			{
				OFFSET	0.0000	-42.4047	0.0000
				CHANNELS 3 Xrotation Yrotation Zrotation
				JOINT LToe
				{
					OFFSET	0.0000	-4.6607	9.7461
					CHANNELS 3 Xrotation Yrotation Zrotation
					End Site
					{
						OFFSET	0.0000	0.0000	6.5382
					}
				}
			}
		}
	}
}
MOTION
Frames:	5
Frame Time: 0.0333333000
	-4.1115	79.2493	7.2822	5.262673	1.214165	-1.204319	0.000000	0.000000	0.000000	0.534128	0.991471	-0.556065	1.642352	3.334621	-1.730557	0.634005	-0.096333	0.326744	-0.396927	0.012809	-0.490757	-0.031569	0.314315	-15.000730	0.103880	-44.205030	-64.091990	0.000122	-0.521639	-0.000014	0.000000	0.000000	0.000000	0.000000	0.000000	0.000000	0.000000	0.000000	0.000000	0.000000	0.000000	0.000000	0.000000	0.000000	0.000000	0.000000	0.000000	0.000000	0.000000	0.000000	0.000000	0.000000	0.000000	0.000000	0.000000	0.000000	0.000000	0.000000	0.000000	0.000000	0.000000	0.000000	0.000000	0.000000	0.000000	0.000000	0.000000	0.000000	0.000000	0.000000	0.000000	0.000000	0.000000	0.000000	0.000000	0.000000	0.000000	0.000000	-0.522259	0.156928	16.892640	14.098350	30.367770	64.946370	0.000000	1.584476	0.000000	0.000000	0.000000	0.000000	0.000000	0.000000	0.000000	0.000000	0.000000	0.000000	0.000000	0.000000	0.000000	0.000000	0.000000	0.000000	0.000000	0.000000	0.000000	0.000000	0.000000	0.000000	0.000000	0.000000	0.000000	0.000000	0.000000	0.000000	0.000000	0.000000	0.000000	0.000000	0.000000	0.000000	0.000000	0.000000	0.000000	0.000000	0.000000	0.000000	0.000000	0.000000	0.000000	0.000000	0.000000	0.000000	0.000000	0.000000	0.000000	-3.355514	0.572313	3.938433	3.676685	0.000000	0.000000	1.975941	0.549325	0.245695	0.000000	0.000000	0.000000	-23.323700	-10.176530	-1.353375	35.426990	0.000003	0.000000	1.186158	-1.177609	-0.549385	-8.180503	0.000000	0.000000
	-4.3218	79.2932	7.5734	6.366719	2.298817	-1.344112	0.000000	0.000000	0.000000	0.786821	0.907745	-0.632546	2.422153	3.062722	-1.914838	1.221173	-0.075056	0.253441	-0.552184	0.002711	0.033342	-0.027834	0.433157	-14.804940	-0.395881	-44.567500	-62.374450	0.000774	-1.104573	-0.000074	0.000000	0.000000	0.000000	0.000000	0.000000	0.000000	0.000000	0.000000	0.000000	0.000000	0.000000	0.000000	0.000000	0.000000	0.000000	0.000000	0.000000	0.000000	0.000000	0.000000	0.000000	0.000000	0.000000	0.000000	0.000000	0.000000	0.000000	0.000000	0.000000	0.000000	0.000000	0.000000	0.000000	0.000000	0.000000	0.000000	0.000000	0.000000	0.000000	0.000000	0.000000	0.000000	0.000000	0.000000	0.000000	0.000000	0.000000	0.000000	-0.736186	0.216760	16.707220	15.006010	30.536900	63.507310	0.000000	2.892691	0.000000	0.000000	0.000000	0.000000	0.000000	0.000000	0.000000	0.000000	0.000000	0.000000	0.000000	0.000000	0.000000	0.000000	0.000000	0.000000	0.000000	0.000000	0.000000	0.000000	0.000000	0.000000	0.000000	0.000000	0.000000	0.000000	0.000000	0.000000	0.000000	0.000000	0.000000	0.000000	0.000000	0.000000	0.000000	0.000000	0.000000	0.000000	0.000000	0.000000	0.000000	0.000000	0.000000	0.000000	0.000000	0.000000	0.000000	0.000000	0.000000	-4.372850	0.434350	4.074276	3.922329	0.000000	0.000000	3.153650	-0.085204	-0.039651	0.000000	0.000000	0.000000	-27.134850	-10.446190	-1.485574	37.643500	0.000004	0.000000	1.334737	-1.535846	-0.713332	-7.889874	0.000000	0.000000
	-4.4677	79.3088	7.9365	7.643235	2.852893	-1.393314	0.000000	0.000000	0.000000	0.905628	0.890996	-0.680792	2.788382	3.011704	-2.020229	1.324883	-0.081775	0.279447	-0.689883	-0.004608	0.233888	-0.015190	0.467292	-14.739240	-0.349301	-44.506610	-61.167860	0.002978	-2.244479	-0.000294	0.000000	0.000000	0.000000	0.000000	0.000000	0.000000	0.000000	0.000000	0.000000	0.000000	0.000000	0.000000	0.000000	0.000000	0.000000	0.000000	0.000000	0.000000	0.000000	0.000000	0.000000	0.000000	0.000000	0.000000	0.000000	0.000000	0.000000	0.000000	0.000000	0.000000	0.000000	0.000000	0.000000	0.000000	0.000000	0.000000	0.000000	0.000000	0.000000	0.000000	0.000000	0.000000	0.000000	0.000000	0.000000	0.000000	0.000000	0.000000	-0.824178	0.234101	16.633110	15.431330	30.241090	62.729980	0.000000	3.824295	0.000000	0.000000	0.000000	0.000000	0.000000	0.000000	0.000000	0.000000	0.000000	0.000000	0.000000	0.000000	0.000000	0.000000	0.000000	0.000000	0.000000	0.000000	0.000000	0.000000	0.000000	0.000000	0.000000	0.000000	0.000000	0.000000	0.000000	0.000000	0.000000	0.000000	0.000000	0.000000	0.000000	0.000000	0.000000	0.000000	0.000000	0.000000	0.000000	0.000000	0.000000	0.000000	0.000000	0.000000	0.000000	0.000000	0.000000	0.000000	0.000000	-5.210476	0.369285	4.131959	3.630749	0.000000	0.000000	3.665398	-0.575609	-0.252743	-0.011276	0.000000	0.000000	-31.007000	-10.179200	-1.688717	38.823730	0.000004	0.000000	1.464090	-1.508030	-0.697814	-6.648192	0.000000	0.000000
	-4.6026	79.2865	8.5572	8.821433	3.097841	-1.475830	0.000000	0.000000	0.000000	0.975459	0.895527	-0.719200	2.990953	3.035133	-2.091842	1.348419	-0.085439	0.297102	-0.674681	-0.004969	0.234833	0.012782	0.478346	-14.708140	0.172311	-43.749200	-60.171010	0.007812	-3.780501	-0.000657	0.000000	0.000000	0.000000	0.000000	0.000000	0.000000	0.000000	0.000000	0.000000	0.000000	0.000000	0.000000	0.000000	0.000000	0.000000	0.000000	0.000000	0.000000	0.000000	0.000000	0.000000	0.000000	0.000000	0.000000	0.000000	0.000000	0.000000	0.000000	0.000000	0.000000	0.000000	0.000000	0.000000	0.000000	0.000000	0.000000	0.000000	0.000000	0.000000	0.000000	0.000000	0.000000	0.000000	0.000000	0.000000	0.000000	0.000000	0.000000	-0.870453	0.236820	16.596140	15.482030	30.257130	62.544060	0.000000	3.498861	0.000000	0.000000	0.000000	0.000000	0.000000	0.000000	0.000000	0.000000	0.000000	0.000000	0.000000	0.000000	0.000000	0.000000	0.000000	0.000000	0.000000	0.000000	0.000000	0.000000	0.000000	0.000000	0.000000	0.000000	0.000000	0.000000	0.000000	0.000000	0.000000	0.000000	0.000000	0.000000	0.000000	0.000000	0.000000	0.000000	0.000000	0.000000	0.000000	0.000000	0.000000	0.000000	0.000000	0.000000	0.000000	0.000000	0.000000	0.000000	0.000000	-5.546853	0.323001	4.241888	2.873614	0.000000	0.000000	3.976361	-0.886086	-0.386160	-0.064834	0.000000	0.000000	-34.466060	-9.952316	-1.819792	38.920890	0.000004	0.000000	1.606779	-1.492143	-0.688231	-4.664288	0.000000	0.000000
	-4.7513	79.2198	9.4322	9.911426	3.132452	-1.671068	0.000000	0.000000	0.000000	1.049290	0.899785	-0.761791	3.191275	3.063448	-2.166947	1.354886	-0.088330	0.310842	-0.672352	-0.005114	0.236125	0.018275	0.481781	-14.714850	0.950388	-42.399830	-59.239800	0.014758	-5.411667	-0.001137	0.000000	0.000000	0.000000	0.000000	0.000000	0.000000	0.000000	0.000000	0.000000	0.000000	0.000000	0.000000	0.000000	0.000000	0.000000	0.000000	0.000000	0.000000	0.000000	0.000000	0.000000	0.000000	0.000000	0.000000	0.000000	0.000000	0.000000	0.000000	0.000000	0.000000	0.000000	0.000000	0.000000	0.000000	0.000000	0.000000	0.000000	0.000000	0.000000	0.000000	0.000000	0.000000	0.000000	0.000000	0.000000	0.000000	0.000000	0.000000	-0.918291	0.239174	16.558270	15.286460	30.775030	62.811860	0.000000	2.126799	0.000000	0.000000	0.000000	0.000000	0.000000	0.000000	0.000000	0.000000	0.000000	0.000000	0.000000	0.000000	0.000000	0.000000	0.000000	0.000000	0.000000	0.000000	0.000000	0.000000	0.000000	0.000000	0.000000	0.000000	0.000000	0.000000	0.000000	0.000000	0.000000	0.000000	0.000000	0.000000	0.000000	0.000000	0.000000	0.000000	0.000000	0.000000	0.000000	0.000000	0.000000	0.000000	0.000000	0.000000	0.000000	0.000000	0.000000	0.000000	0.000000	-5.596272	0.270918	4.491676	2.014444	0.000000	0.000000	4.171434	-1.097058	-0.476505	-0.197900	0.000000	0.000000	-37.461950	-9.697106	-1.647991	38.073910	0.000004	0.000000	1.935995	-1.594551	-0.731074	-2.441732	0.000000	0.000000
